<svg xmlns="http://www.w3.org/2000/svg" xmlns:xlink="http://www.w3.org/1999/xlink" version="1.0" x="0px" y="0px" viewBox="0 0 50 50" enable-background="new 0 0 50 50" xml:space="preserve"><g><path fill="#000000" d="M45.922,4c0,1.587-1.439,3-3.199,3H7.277c-1.76,0-3.199-1.413-3.199-3c0-1.587,1.439-3,3.199-3h35.445   C44.482,1,45.922,2.413,45.922,4z"></path><g><polygon fill="#000000" points="44.74,9 5.318,9 21,28.877 21,49.043 29,42.908 29,28.879   "></polygon><path fill="#000000" d="M31.297,37.131c-4.26,0-7.725-3.466-7.725-7.725c0-4.26,3.465-7.725,7.725-7.725    c4.259,0,7.725,3.465,7.725,7.725C39.021,33.665,35.556,37.131,31.297,37.131z M31.297,24.681c-2.605,0-4.725,2.12-4.725,4.725    c0,2.604,2.119,4.725,4.725,4.725c2.604,0,4.725-2.12,4.725-4.725C36.021,26.801,33.901,24.681,31.297,24.681z"></path></g></g></svg>