<svg xmlns="http://www.w3.org/2000/svg" xmlns:xlink="http://www.w3.org/1999/xlink" version="1.1" x="0px" y="0px" viewBox="0 0 100 100" enable-background="new 0 0 100 100" xml:space="preserve"><path fill="#000000" d="M84.59,67.08l-8.569-4.949l7.053-2.379c1.309-0.441,2.012-1.86,1.57-3.168  c-0.442-1.309-1.859-2.011-3.168-1.57l-11.225,3.787L70.25,58.8l-6.06-3.5V44.69l6.05-3.5l0.004-0.002l11.232,3.789  c0.265,0.089,0.534,0.132,0.799,0.132c1.044,0,2.017-0.658,2.369-1.702c0.441-1.308-0.262-2.727-1.57-3.168l-7.06-2.381l8.576-4.947  c1.2-0.69,1.61-2.22,0.92-3.41c-0.69-1.2-2.22-1.61-3.42-0.92l-8.57,4.95l1.466-7.3c0.271-1.354-0.605-2.671-1.959-2.943  c-1.352-0.27-2.672,0.605-2.943,1.959L67.751,36.86l-0.001,0l-6.06,3.5l-9.19-5.31v-6.995l8.893-7.829  c1.036-0.912,1.137-2.491,0.224-3.528c-0.912-1.034-2.49-1.138-3.528-0.224L52.5,21.393V11.5c0-1.39-1.12-2.5-2.5-2.5  s-2.5,1.11-2.5,2.5v9.893l-5.588-4.919c-1.037-0.914-2.616-0.811-3.528,0.224c-0.913,1.037-0.812,2.616,0.224,3.528l8.893,7.829  v6.995l-9.19,5.31l-6.06-3.5l-0.001,0l-2.333-11.614c-0.271-1.354-1.59-2.228-2.943-1.959c-1.354,0.272-2.23,1.59-1.959,2.943  l1.466,7.3l-8.57-4.95c-1.2-0.69-2.73-0.28-3.42,0.92c-0.69,1.19-0.28,2.72,0.92,3.41l8.576,4.947l-7.06,2.381  c-1.309,0.441-2.012,1.86-1.57,3.168c0.353,1.044,1.325,1.702,2.369,1.702c0.265,0,0.534-0.043,0.799-0.132l11.232-3.789  l0.004,0.002l6.05,3.5V55.3l-6.06,3.5l-0.001,0.001l-11.225-3.787c-1.31-0.439-2.726,0.262-3.168,1.57  c-0.441,1.308,0.262,2.727,1.57,3.168l7.053,2.379L15.41,67.08c-1.2,0.69-1.61,2.22-0.92,3.42c0.47,0.8,1.31,1.25,2.17,1.25  c0.42,0,0.85-0.11,1.25-0.34l8.57-4.95v0l-1.466,7.301c-0.271,1.354,0.605,2.671,1.959,2.943c0.166,0.033,0.332,0.05,0.495,0.049  c1.166,0,2.21-0.82,2.448-2.008l2.332-11.608l0.012-0.007l6.05-3.5l9.19,5.31v6.995l-8.893,7.828  c-1.036,0.913-1.137,2.492-0.225,3.529c0.913,1.035,2.492,1.137,3.529,0.225l5.588-4.919V88.5c0,1.38,1.12,2.5,2.5,2.5  s2.5-1.12,2.5-2.5v-9.902l5.588,4.919c0.476,0.418,1.064,0.623,1.651,0.623c0.693,0,1.384-0.287,1.878-0.848  c0.912-1.037,0.812-2.616-0.225-3.529L52.5,71.935V64.94l9.19-5.31l6.05,3.5l0.012,0.007l2.332,11.608  c0.238,1.188,1.282,2.008,2.448,2.008c0.163,0,0.329-0.016,0.495-0.049c1.354-0.272,2.23-1.59,1.959-2.943L73.52,66.46v0l8.57,4.95  c0.4,0.23,0.83,0.34,1.25,0.34c0.86,0,1.7-0.45,2.17-1.25C86.2,69.3,85.79,67.77,84.59,67.08z M52.5,59.17L50,60.61l-2.5-1.44  l-4.19-2.43l-2.5-1.44v-2.89v-4.83v-2.89l2.5-1.44l4.19-2.43l2.5-1.44l2.5,1.44l4.19,2.43l2.5,1.44v2.89v4.83v2.89l-2.5,1.44  L52.5,59.17z"></path></svg>