<svg xmlns="http://www.w3.org/2000/svg" xmlns:xlink="http://www.w3.org/1999/xlink" version="1.1" baseProfile="basic" x="0px" y="0px" viewBox="0 0 100 100" xml:space="preserve"><path fill-rule="evenodd" clip-rule="evenodd" d="M68.6,71.8L68.6,71.8c-4,5.6-10.5,9.2-17.9,9.2c-9.5,0-17.6-6.1-20.7-14.6  c0,0,0,0,0,0c0-0.1-0.1-0.2-0.1-0.4c-0.1-0.2-0.1-0.4-0.2-0.6c-3.3-10.6,1.2-21.4,8.5-30.1c9.7-11.4,7.6-29.7,7.6-29.7  C90.8,45.9,68.6,71.8,68.6,71.8z M57.8,51.4c-4.7-5.6-3.7-14.5-3.7-14.5c-22,19.7-11.1,32.4-11.1,32.4s0,0,0,0  c1.9,2.7,5.1,4.5,8.7,4.5c4.7,0,8.6-3,10.1-7.2c0,0,0,0,0,0c0-0.1,0-0.1,0.1-0.2c0-0.1,0.1-0.2,0.1-0.3  C63.6,60.9,61.4,55.6,57.8,51.4z M28.7,88.8c7.6-4.3,15.1-2.2,22.7,0c7.6,2.2,15.1,4.3,22.7,0c0,1.4,0,2.9,0,4.3  c-3.2,1.8-6.4,2.5-9.6,2.5c-4.4,0-8.7-1.3-13.1-2.5c-7.6-2.2-15.1-4.3-22.7,0c0-0.7,0-1.4,0-2.1c0,0,0,0,0,0  C28.7,90.2,28.7,89.5,28.7,88.8z M28.7,90.9L28.7,90.9C28.7,90.9,28.7,90.9,28.7,90.9C28.7,90.9,28.7,90.9,28.7,90.9z"></path></svg>