<svg xmlns="http://www.w3.org/2000/svg" xmlns:xlink="http://www.w3.org/1999/xlink" version="1.1" baseProfile="basic" x="0px" y="0px" viewBox="0 0 100 100" xml:space="preserve"><path fill-rule="evenodd" clip-rule="evenodd" d="M67.9,85.9c-3.5,1.3-8.7,1.3-14.1,1.3l-1,0l-6.5,0c-5.5,0-10.6,0-14.1-1.3  c-3.5-1.3-5.1-3.8-5.1-8V36.2c0-8.7,5.5-16.2,13.2-19.1v-5.2C40.2,8.1,43.3,5,47,5H53c3.8,0,6.8,3.1,6.8,6.9v5.2  C67.5,20,73,27.5,73,36.2v41.7C72.9,82.2,71.3,84.7,67.9,85.9z M54.9,10.3h-9.8c-0.7,0-1.3,0.6-1.3,1.3c0,0.7,0.6,1.3,1.3,1.3h9.8  c0.7,0,1.3-0.6,1.3-1.3C56.2,10.8,55.6,10.3,54.9,10.3z M47.6,33.3c0,0,0.9,7.8-3.3,12.7c-3.2,3.7-5.1,8.3-3.7,12.9  c0,0.1,0.1,0.2,0.1,0.2c0,0.1,0,0.1,0.1,0.2c0,0,0,0,0,0c1.3,3.6,4.8,6.3,8.9,6.3c3.2,0,5.9-1.6,7.7-3.9c0,0,2.4-2.7,2.4-7.6  C59.7,49.1,57.3,42,47.6,33.3z M61.1,69.6c-3.7,2.1-7.4,1-11.1,0c-3.7-1.1-7.4-2.1-11.1,0c0,0.3,0,0.7,0,1c0,0.3,0,0.7,0,1  c3.7-2.1,7.4-1,11.1,0c2.1,0.6,4.3,1.2,6.4,1.2c1.6,0,3.1-0.3,4.7-1.2C61.1,71,61.1,70.3,61.1,69.6z M54.5,59.3  C54.5,59.3,54.5,59.4,54.5,59.3C54.5,59.4,54.5,59.4,54.5,59.3c-0.7,1.9-2.4,3.1-4.4,3.1c-1.5,0-2.9-0.8-3.7-1.9c0,0,0,0,0,0  s-4.7-5.4,4.8-13.8c0,0-0.4,3.8,1.6,6.2c1.5,1.8,2.5,4.1,1.8,6.3C54.5,59.2,54.5,59.3,54.5,59.3z M46.3,89.9l1,0l6.5,0  c0.3,0,0.7,0,1,0c5.5,0,10.3-0.1,14.1-1.4c1.7-0.6,3.1-1.5,4.2-2.7c-0.3,10.6-9.4,9.1-20.4,9.1h-5.2c-11,0-20.1,1.5-20.4-9.1  c1.1,1.2,2.5,2,4.2,2.7C35.2,89.9,40.3,89.9,46.3,89.9z"></path></svg>